<svg xmlns="http://www.w3.org/2000/svg" width="1920" height="1200" viewBox="0 0 1920 1200">
  <defs>
    <linearGradient id="bg" x1="0" y1="0" x2="0" y2="1">
      <stop offset="0%" stop-color="#0c0d0f"/>
      <stop offset="100%" stop-color="#060607"/>
    </linearGradient>
  </defs>
  <rect width="1920" height="1200" fill="url(#bg)"/>
  <!-- Fake sidebar -->
  <rect x="0" y="0" width="280" height="1200" fill="#0a0a0c" stroke="#1a1a2e" stroke-width="1"/>
  <rect x="20" y="30" width="240" height="16" rx="4" fill="#1a1a2e"/>
  <rect x="20" y="60" width="200" height="12" rx="3" fill="#141416"/>
  <rect x="20" y="82" width="180" height="12" rx="3" fill="#141416"/>
  <rect x="20" y="104" width="220" height="12" rx="3" fill="#141416"/>
  <rect x="20" y="130" width="200" height="12" rx="3" fill="#141416"/>
  <rect x="20" y="152" width="160" height="12" rx="3" fill="#141416"/>
  <!-- Fake editor -->
  <rect x="280" y="0" width="1040" height="1200" fill="#08080a"/>
  <rect x="280" y="0" width="1040" height="36" fill="#0c0d0f" stroke="#1a1a2e" stroke-width="0 0 1 0"/>
  <rect x="296" y="10" width="120" height="18" rx="4" fill="#1a1a2e"/>
  <rect x="430" y="10" width="100" height="18" rx="4" fill="#141416"/>
  <!-- Code lines -->
  <rect x="316" y="60" width="40" height="10" rx="2" fill="#3f3f46"/>
  <rect x="370" y="60" width="300" height="10" rx="2" fill="#c084fc" opacity="0.3"/>
  <rect x="316" y="80" width="40" height="10" rx="2" fill="#3f3f46"/>
  <rect x="370" y="80" width="250" height="10" rx="2" fill="#e8c547" opacity="0.3"/>
  <rect x="316" y="100" width="40" height="10" rx="2" fill="#3f3f46"/>
  <rect x="370" y="100" width="350" height="10" rx="2" fill="#86efac" opacity="0.3"/>
  <rect x="316" y="120" width="40" height="10" rx="2" fill="#3f3f46"/>
  <rect x="370" y="120" width="280" height="10" rx="2" fill="#93c5fd" opacity="0.3"/>
  <!-- Fake chat panel -->
  <rect x="1320" y="0" width="600" height="1200" fill="#0a0a0c" stroke="#1a1a2e" stroke-width="0 0 0 1"/>
  <rect x="1340" y="20" width="560" height="40" rx="12" fill="#e8c547" opacity="0.1" stroke="#e8c547" stroke-width="1" stroke-opacity="0.2"/>
  <text x="1620" y="46" text-anchor="middle" fill="#e8c547" font-family="Inter,sans-serif" font-size="14" font-weight="600">AI Agent Chat</text>
  <!-- Center label -->
  <text x="960" y="600" text-anchor="middle" fill="#e8c547" font-family="Inter,sans-serif" font-size="36" font-weight="800">Cortex AI IDE</text>
  <text x="960" y="650" text-anchor="middle" fill="#71717a" font-family="Inter,sans-serif" font-size="16">Replace with actual screenshot</text>
</svg>